<?xml version="1.0" standalone="no"?>
<!DOCTYPE svg PUBLIC "-//W3C//DTD SVG 20010904//EN"
 "http://www.w3.org/TR/2001/REC-SVG-20010904/DTD/svg10.dtd">
<svg version="1.0" xmlns="http://www.w3.org/2000/svg"
 width="499.000000pt" height="499.000000pt" viewBox="0 0 499.000000 499.000000"
 preserveAspectRatio="xMidYMid meet">
<metadata>
Created by potrace 1.14, written by Peter Selinger 2001-2017
</metadata>
<g transform="translate(0.000000,499.000000) scale(0.100000,-0.100000)"
fill="#000000" stroke="none">
<path d="M2293 3764 c-35 -7 -86 -23 -115 -35 -52 -22 -261 -153 -291 -184 -9
-8 -18 -15 -22 -15 -8 0 -69 -43 -73 -52 -2 -5 -10 -8 -18 -8 -8 0 -14 -4 -14
-10 0 -5 -6 -10 -14 -10 -8 0 -16 -3 -18 -8 -1 -4 -26 -23 -54 -42 -180 -122
-446 -306 -459 -317 -5 -5 -47 -33 -93 -63 -45 -30 -82 -58 -82 -62 0 -5 -7
-8 -14 -8 -8 0 -27 -11 -42 -25 -15 -14 -30 -25 -35 -25 -4 0 -14 -6 -21 -12
-26 -25 -106 -78 -117 -78 -6 0 -11 -4 -11 -8 0 -4 -15 -16 -32 -27 -38 -22
-153 -135 -185 -180 -58 -84 -99 -197 -110 -300 -7 -73 -7 -631 1 -700 3 -27
8 -66 12 -85 4 -19 7 -43 8 -52 0 -10 4 -18 8 -18 4 0 8 -7 8 -15 0 -16 39
-103 55 -122 6 -6 21 -27 34 -45 73 -102 244 -177 414 -184 42 -2 81 -6 86 -9
6 -3 12 -1 15 4 3 5 21 6 38 2 33 -7 92 -5 115 4 7 2 15 0 18 -6 4 -5 11 -7
16 -3 6 3 36 5 67 5 186 -5 312 -5 312 0 0 4 17 3 38 0 20 -4 48 -5 62 -4 14
2 42 3 63 3 20 0 45 0 55 0 18 0 51 -1 67 -2 64 -5 287 46 305 70 3 4 22 16
43 27 75 38 186 186 201 269 3 14 7 29 10 34 8 14 16 62 22 142 5 58 9 1413 5
1505 -1 19 -7 20 -116 19 -126 -2 -159 -13 -199 -67 -21 -28 -21 -35 -23 -655
-2 -684 -4 -752 -27 -827 -15 -50 -71 -125 -93 -125 -6 0 -13 -4 -15 -9 -1 -5
-30 -18 -63 -29 -56 -18 -91 -19 -507 -19 -418 0 -451 1 -508 19 -86 28 -142
83 -171 168 -20 60 -22 85 -22 300 -1 286 6 337 64 454 53 106 123 181 242
259 42 28 77 54 77 59 0 4 5 8 11 8 10 0 98 56 109 70 3 3 29 21 58 39 28 18
52 37 52 43 0 5 4 7 8 4 5 -3 18 3 28 12 29 27 111 82 122 82 6 0 12 4 14 8 3
7 119 93 159 117 38 23 104 68 109 74 3 4 31 23 62 44 31 21 63 43 70 50 16
14 47 34 68 44 8 4 20 12 27 17 26 23 40 33 106 74 37 23 67 40 67 37 0 -3 10
1 23 9 25 17 90 34 157 42 25 3 549 7 1165 7 l1120 2 0 95 c0 73 -5 106 -19
138 -11 23 -21 40 -23 38 -2 -2 -15 7 -27 19 -13 13 -42 29 -64 35 -65 17
-2217 12 -2299 -6z"/>
</g>
</svg>
